# xmcd
#
# Track frame offsets: 
#        150
#        26950
#        48808
#        76066
#        92747
#        134934
#        160486
#        178108
#        209529
#
# Disc length: 3152 seconds
#
# Revision: 0
# Processed by: cddbd v1.5.2PL0 Copyright (c) Steve Scherf et al.
# Submitted via: ExactAudioCopy v0.95a5
#
DISCID=7e0c4e09
DTITLE=袁莎 - 中国古筝名曲
DYEAR=2018
DGENRE=Folk
TTITLE0=平湖秋月
TTITLE1=渔舟唱晚
TTITLE2=出水莲
TTITLE3=汉宫秋月
TTITLE4=月儿高
TTITLE5=陈杏元和番
TTITLE6=雨溅海棠花
TTITLE7=高山流水
TTITLE8=禅院钟声
EXTD=
EXTT0=
EXTT1=
EXTT2=
EXTT3=
EXTT4=
EXTT5=
EXTT6=
EXTT7=
EXTT8=
PLAYORDER=
